<svg viewBox="0 0 64 64" role="img" aria-hidden="true" focusable="false">
  <path
    d="M20 28h24v11c0 1.66-1.34 3-3 3H23c-1.66 0-3-1.34-3-3V28z"
    fill="#fff6ef"
    stroke="rgba(45, 55, 72, 0.15)"
    stroke-width="2"
    stroke-linejoin="round"
  />
  <path
    d="M20 26c-5.52 0-10-4.48-10-10 0-4.97 4.03-9 9-9 2.24 0 4.28 0.82 5.84 2.19C26.38 7.17 29 6 31.86 6c4.08 0 7.67 2.67 8.87 6.5C42.15 11.56 44.2 11 46.4 11c4.97 0 9 4.03 9 9s-4.48 8.5-10 8.5H20z"
    fill="#ffffff"
    stroke="rgba(45, 55, 72, 0.18)"
    stroke-width="2"
    stroke-linejoin="round"
  />
</svg>